<?xml version="1.0" encoding="UTF-8" standalone="no"?>
<!DOCTYPE svg PUBLIC "-//W3C//DTD SVG 1.1//EN" "http://www.w3.org/Graphics/SVG/1.1/DTD/svg11.dtd">
<svg width="100%" height="100%" viewBox="0 0 2093 657" version="1.1" xmlns="http://www.w3.org/2000/svg" xmlns:xlink="http://www.w3.org/1999/xlink" xml:space="preserve" xmlns:serif="http://www.serif.com/" style="fill-rule:evenodd;clip-rule:evenodd;">
    <g transform="matrix(1,0,0,1,-229.231,-1753.94)">
        <g transform="matrix(1.00552,0,0,1.00552,1663.11,1957.05)">
            <g transform="matrix(1,0,0,1,-205,-202)">
                <path d="M399.641,59.525L215.643,388.545C211.844,395.338 202.084,395.378 198.228,388.618L10.582,59.556C6.381,52.19 12.68,43.267 21.028,44.759L205.223,77.682C206.398,77.892 207.601,77.89 208.776,77.676L389.119,44.806C397.439,43.289 403.768,52.143 399.641,59.525Z" style="fill:url(#_Linear1);fill-rule:nonzero;"/>
                <path d="M292.965,1.574L156.801,28.255C154.563,28.694 152.906,30.59 152.771,32.866L144.395,174.33C144.198,177.662 147.258,180.248 150.51,179.498L188.42,170.749C191.967,169.931 195.172,173.055 194.443,176.622L183.18,231.775C182.422,235.487 185.907,238.661 189.532,237.56L212.947,230.446C216.577,229.344 220.065,232.527 219.297,236.242L201.398,322.875C200.278,328.294 207.486,331.249 210.492,326.603L212.5,323.5L323.454,102.072C325.312,98.365 322.108,94.137 318.036,94.923L279.014,102.454C275.347,103.161 272.227,99.746 273.262,96.158L298.731,7.867C299.767,4.273 296.636,0.855 292.965,1.574Z" style="fill:url(#_Linear2);fill-rule:nonzero;"/>
            </g>
        </g>
        <g transform="matrix(6.04893,0,0,6.04893,1234.09,1957.05)">
            <g transform="matrix(1,0,0,1,-32,-32)">
                <clipPath id="_clip3">
                    <rect x="0" y="0" width="64" height="64"/>
                </clipPath>
                <g clip-path="url(#_clip3)">
                    <g transform="matrix(0.05696,0,0,0.05696,1.29549,4.87652)">
                        <circle cx="539.058" cy="475.256" r="100.334" style="fill:rgb(0,216,255);"/>
                        <g>
                            <path d="M539.06,271.256C673.772,271.256 798.916,290.586 893.274,323.07C1006.96,362.21 1076.86,421.536 1076.86,475.256C1076.86,531.236 1002.78,594.262 880.696,634.712C788.396,665.292 666.936,681.256 539.06,681.256C407.952,681.256 283.8,666.272 190.46,634.376C72.368,594.012 1.24,530.17 1.24,475.256C1.24,421.972 67.98,363.104 180.07,324.024C274.78,291.004 403.014,271.256 539.042,271.256L539.06,271.256Z" style="fill:none;stroke:rgb(0,216,255);stroke-width:48px;"/>
                            <path d="M361.472,373.844C428.772,257.148 508.032,158.396 583.312,92.884C674.012,13.952 760.326,-16.96 806.86,9.874C855.356,37.84 872.944,133.502 846.994,259.466C827.394,354.702 780.526,467.89 716.642,578.666C651.142,692.242 576.142,792.306 501.888,857.21C407.928,939.346 317.088,969.07 269.518,941.636C223.358,915.036 205.706,827.796 227.85,711.17C246.56,612.63 293.514,491.68 361.45,373.842L361.472,373.844Z" style="fill:none;stroke:rgb(0,216,255);stroke-width:48px;"/>
                            <path d="M361.64,578.964C294.15,462.4 248.2,344.39 229.02,246.454C205.932,128.454 222.256,38.234 268.748,11.322C317.196,-16.726 408.858,15.81 505.028,101.202C577.74,165.762 652.404,262.876 716.474,373.548C782.162,487.014 831.394,601.968 850.546,698.712C874.78,821.138 855.166,914.68 807.64,942.192C761.526,968.888 677.14,940.624 587.16,863.192C511.134,797.772 429.796,696.686 361.64,578.962L361.64,578.964Z" style="fill:none;stroke:rgb(0,216,255);stroke-width:48px;"/>
                        </g>
                    </g>
                </g>
            </g>
        </g>
        <g transform="matrix(0.453821,0,0,0.453821,524.364,1161.08)">
            <g transform="matrix(4.16667,0,0,4.16667,191.068,1353)">
                <path d="M0,61.651C0,35.964 0,23.128 6.54,14.12C8.654,11.211 11.211,8.654 14.12,6.54C23.119,0 35.964,0 61.647,0L130.8,0C156.487,0 169.323,0 178.332,6.54C181.239,8.653 183.796,11.211 185.907,14.12C192.451,23.123 192.451,35.964 192.451,61.651L192.451,130.801C192.451,156.488 192.451,169.324 185.907,178.333C183.797,181.241 181.24,183.798 178.332,185.909C169.328,192.452 156.487,192.452 130.8,192.452L61.647,192.452C35.964,192.452 23.124,192.452 14.12,185.909C11.211,183.797 8.653,181.241 6.54,178.333C0,169.329 0,156.488 0,130.801L0,61.651Z" style="fill:url(#_Linear4);fill-rule:nonzero;"/>
            </g>
            <g transform="matrix(4.16667,0,0,4.16667,191.068,1353)">
                <path d="M130.414,93.159C143.033,93.159 153.263,82.929 153.263,70.309C153.263,57.69 143.033,47.46 130.414,47.46C117.794,47.46 107.564,57.69 107.564,70.309C107.564,82.929 117.794,93.159 130.414,93.159Z" style="fill:white;fill-rule:nonzero;"/>
            </g>
            <g transform="matrix(4.16667,0,0,4.16667,191.068,1353)">
                <path d="M51.897,69.042C51.897,61.789 51.897,58.161 53.315,55.385C54.554,52.944 56.536,50.959 58.976,49.716C61.747,48.307 65.375,48.307 72.633,48.307L89.185,46.697L90.772,48.307L90.772,132.523C90.772,138.559 90.334,141.273 89.347,143.651C88.696,145.223 87.741,146.652 86.538,147.855C85.335,149.058 83.906,150.012 82.334,150.663C79.955,151.65 77.373,151.956 71.338,151.956C65.302,151.956 62.282,151.956 59.904,150.969C58.331,150.318 56.903,149.364 55.7,148.161C54.497,146.958 53.542,145.53 52.891,143.958C51.904,141.578 51.904,138.558 51.904,132.523L51.897,69.042Z" style="fill-opacity:0.2;fill-rule:nonzero;"/>
            </g>
            <g transform="matrix(4.16667,0,0,4.16667,191.068,1353)">
                <path d="M50.282,67.422C50.282,60.168 50.282,56.54 51.7,53.765C52.939,51.324 54.921,49.339 57.361,48.096C60.132,46.686 63.76,46.686 71.018,46.686L89.157,46.686L89.157,130.903C89.157,136.939 89.157,139.959 88.17,142.337C87.519,143.909 86.565,145.337 85.361,146.54C84.158,147.743 82.73,148.698 81.158,149.349C78.778,150.336 75.758,150.336 69.723,150.336C63.687,150.336 60.667,150.336 58.289,149.349C56.716,148.698 55.288,147.743 54.085,146.54C52.882,145.337 51.927,143.909 51.276,142.337C50.289,139.958 50.289,136.937 50.289,130.903L50.282,67.422Z" style="fill:white;fill-rule:nonzero;"/>
            </g>
        </g>
        <g transform="matrix(1.40447,0,0,1.40447,40.5439,-1142.54)">
            <text x="123.056px" y="2497.75px" style="font-family:'Futura-Medium', 'Futura', sans-serif;font-weight:500;font-size:125px;fill:url(#_Linear5);">R<tspan x="196.298px 265.451px " y="2497.75px 2497.75px ">eS</tspan>cr<tspan x="446.542px 477.67px 553.72px 587.9px 626.474px 699.716px 768.869px " y="2497.75px 2497.75px 2497.75px 2497.75px 2497.75px 2497.75px 2497.75px ">ipt Rea</tspan>ct V<tspan x="1061.9px 1093.03px 1128.31px 1197.46px 1236.03px 1311.04px 1346.32px 1421.27px 1472.54px 1507.82px 1576.97px " y="2497.75px 2497.75px 2497.75px 2497.75px 2497.75px 2497.75px 2497.75px 2497.75px 2497.75px 2497.75px 2497.75px ">ite Starter</tspan></text>
        </g>
    </g>
    <defs>
        <linearGradient id="_Linear1" x1="0" y1="0" x2="1" y2="0" gradientUnits="userSpaceOnUse" gradientTransform="matrix(229,311,-311,229,6.00017,32.9999)"><stop offset="0" style="stop-color:rgb(65,209,255);stop-opacity:1"/><stop offset="1" style="stop-color:rgb(189,52,254);stop-opacity:1"/></linearGradient>
        <linearGradient id="_Linear2" x1="0" y1="0" x2="1" y2="0" gradientUnits="userSpaceOnUse" gradientTransform="matrix(41.425,284.171,-284.171,41.425,194.651,8.81818)"><stop offset="0" style="stop-color:rgb(255,234,131);stop-opacity:1"/><stop offset="0.08" style="stop-color:rgb(255,221,53);stop-opacity:1"/><stop offset="1" style="stop-color:rgb(255,168,0);stop-opacity:1"/></linearGradient>
        <linearGradient id="_Linear4" x1="0" y1="0" x2="1" y2="0" gradientUnits="userSpaceOnUse" gradientTransform="matrix(69.3344,186.175,-186.175,69.3344,96.2256,0)"><stop offset="0" style="stop-color:rgb(232,79,79);stop-opacity:1"/><stop offset="0.41" style="stop-color:rgb(219,70,70);stop-opacity:1"/><stop offset="1" style="stop-color:rgb(203,57,57);stop-opacity:1"/><stop offset="1" style="stop-color:rgb(203,57,57);stop-opacity:1"/></linearGradient>
        <linearGradient id="_Linear5" x1="0" y1="0" x2="1" y2="0" gradientUnits="userSpaceOnUse" gradientTransform="matrix(1500.67,0,0,162.292,123.056,2449.07)"><stop offset="0" style="stop-color:rgb(227,75,75);stop-opacity:1"/><stop offset="0.5" style="stop-color:rgb(0,216,255);stop-opacity:1"/><stop offset="1" style="stop-color:rgb(160,88,254);stop-opacity:1"/></linearGradient>
    </defs>
</svg>
